<svg id="Layer_1" data-name="Layer 1" xmlns="http://www.w3.org/2000/svg" viewBox="0 0 198.43 198.43"><defs><style>.cls-1,.cls-2,.cls-3,.cls-4,.cls-5,.cls-6{fill:none;stroke-width:3.5px;}.cls-1{stroke:#b3282e;}.cls-2{stroke:#14a9e7;}.cls-3{stroke:#6eab51;}.cls-4{stroke:#c71186;}.cls-5{stroke:#e4af32;}.cls-6{stroke:#55b8e4;}</style></defs><title>Artboard 1</title><line class="cls-1" x1="19.19" y1="18.87" x2="19.19" y2="115.82"/><line class="cls-2" x1="26.67" y1="18.87" x2="26.67" y2="115.82"/><line class="cls-3" x1="34.15" y1="18.87" x2="34.15" y2="115.82"/><line class="cls-4" x1="41.62" y1="18.87" x2="41.62" y2="115.82"/><line class="cls-3" x1="49.1" y1="18.87" x2="49.1" y2="115.82"/><line class="cls-1" x1="56.58" y1="18.87" x2="56.58" y2="115.82"/><line class="cls-5" x1="64.06" y1="18.87" x2="64.06" y2="115.82"/><line class="cls-6" x1="71.54" y1="18.87" x2="71.54" y2="115.82"/><line class="cls-1" x1="119.19" y1="78.59" x2="119.19" y2="175.55"/><line class="cls-2" x1="126.67" y1="78.59" x2="126.67" y2="175.55"/><line class="cls-3" x1="134.15" y1="78.59" x2="134.15" y2="175.55"/><line class="cls-4" x1="141.62" y1="78.59" x2="141.62" y2="175.55"/><line class="cls-3" x1="149.1" y1="78.59" x2="149.1" y2="175.55"/><line class="cls-1" x1="156.58" y1="78.59" x2="156.58" y2="175.55"/><line class="cls-5" x1="164.06" y1="78.59" x2="164.06" y2="175.55"/><line class="cls-6" x1="171.54" y1="78.59" x2="171.54" y2="175.55"/><line class="cls-1" x1="76.58" y1="72.99" x2="173.54" y2="72.99"/><line class="cls-2" x1="76.58" y1="65.52" x2="173.54" y2="65.52"/><line class="cls-3" x1="76.58" y1="58.04" x2="173.54" y2="58.04"/><line class="cls-4" x1="76.58" y1="50.56" x2="173.54" y2="50.56"/><line class="cls-3" x1="76.58" y1="43.08" x2="173.54" y2="43.08"/><line class="cls-1" x1="76.58" y1="35.6" x2="173.54" y2="35.6"/><line class="cls-5" x1="76.58" y1="28.12" x2="173.54" y2="28.12"/><line class="cls-6" x1="76.58" y1="20.64" x2="173.54" y2="20.64"/><line class="cls-1" x1="17.42" y1="173.75" x2="114.37" y2="173.75"/><line class="cls-2" x1="17.42" y1="166.27" x2="114.37" y2="166.27"/><line class="cls-3" x1="17.42" y1="158.79" x2="114.37" y2="158.79"/><line class="cls-4" x1="17.42" y1="151.31" x2="114.37" y2="151.31"/><line class="cls-3" x1="17.42" y1="143.84" x2="114.37" y2="143.84"/><line class="cls-1" x1="17.42" y1="136.36" x2="114.37" y2="136.36"/><line class="cls-5" x1="17.42" y1="128.88" x2="114.37" y2="128.88"/><line class="cls-6" x1="17.42" y1="121.4" x2="114.37" y2="121.4"/></svg>