<svg xmlns="http://www.w3.org/2000/svg" xmlns:xlink="http://www.w3.org/1999/xlink" viewBox="0 0 526.48 150.91"><defs><style>.cls-1,.cls-10,.cls-3,.cls-5,.cls-6,.cls-7,.cls-8,.cls-9{fill:none;}.cls-2{fill:#26a7e0;}.cls-3{stroke:#26a7e0;stroke-miterlimit:29.43;stroke-width:0.8px;}.cls-4{clip-path:url(#clip-path);}.cls-5{stroke:#d1232a;}.cls-10,.cls-5,.cls-6,.cls-7,.cls-8,.cls-9{stroke-width:2.82px;}.cls-6{stroke:#00a9e9;}.cls-7{stroke:#42ac49;}.cls-8{stroke:#e70d89;}.cls-9{stroke:#f4b01b;}.cls-10{stroke:#00b9e6;}</style><clipPath id="clip-path"><rect class="cls-1" width="149.74" height="150.4"/></clipPath></defs><title>Asset 1</title><g id="Layer_2" data-name="Layer 2"><g id="Layer_1-2" data-name="Layer 1"><path class="cls-2" d="M180.34,92.07V149.4h5.08V92.07Zm22.29,57.32V98.66l.16-.16,23.34,50.89h7.7V92.07h-5.08v50.18l-.16.16L205.34,92.07h-7.78V149.4Zm43.42-57.32V149.4h5.08V92.07Zm28.1,57.32h5.08v-53h14V92.07h-33v4.29h14v53Zm28.18-57.32V149.4h5.08V92.07Zm32.19,0-18.1,57.32h5.08L326,134.31h22.47l4.6,15.09h5.32L340.57,92.07Zm-7,38,9.69-32.4h.16l9.77,32.4Zm43.95,19.37h5.08v-53h14V92.07h-33v4.29h14v53Zm28.18-57.32V149.4h5.08V92.07Zm33.08,51.29h-.16L419,92.07h-5.4l16,57.32h6.35l15.88-57.32H446.9l-14.13,51.29Zm27.9-51.29V149.4h26.52v-4.29H465.75v-23h19.93V117.8H465.75V96.36h20.88V92.07Zm65.26,14.53c0-8.26-2.54-15.64-14.45-15.64-9.37,0-15.64,4.13-15.56,14.05.08,5.72.56,9.13,11.67,16,8.26,5.08,13.42,7.3,13.42,15.09,0,6.59-3.26,10.16-9.92,10.16-10.24,0-10.72-6.59-10.72-12.94h-5.24c-.48,11.19,4.53,17.23,15.72,17.23,10,0,15.24-5,15.24-15.24,0-11.12-7.22-12.62-14.29-17.71-6.51-4.68-10.8-4.92-10.8-13.42,0-6.75,3.89-8.89,10.08-8.89,7.78,0,9.53,4.29,9.69,11.35Z"/><path class="cls-3" d="M180.34,92.07V149.4h5.08V92.07Zm22.29,57.32V98.66l.16-.16,23.34,50.89h7.7V92.07h-5.08v50.18l-.16.16L205.34,92.07h-7.78V149.4Zm43.42-57.32V149.4h5.08V92.07Zm28.1,57.32h5.08v-53h14V92.07h-33v4.29h14v53Zm28.18-57.32V149.4h5.08V92.07Zm32.19,0-18.1,57.32h5.08L326,134.31h22.47l4.6,15.09h5.32L340.57,92.07Zm-7,38,9.69-32.4h.16l9.77,32.4Zm43.95,19.37h5.08v-53h14V92.07h-33v4.29h14v53Zm28.18-57.32V149.4h5.08V92.07Zm33.08,51.29h-.16L419,92.07h-5.4l16,57.32h6.35l15.88-57.32H446.9l-14.13,51.29Zm27.9-51.29V149.4h26.52v-4.29H465.75v-23h19.93V117.8H465.75V96.36h20.88V92.07Zm65.26,14.53c0-8.26-2.54-15.64-14.45-15.64-9.37,0-15.64,4.13-15.56,14.05.08,5.72.56,9.13,11.67,16,8.26,5.08,13.42,7.3,13.42,15.09,0,6.59-3.26,10.16-9.92,10.16-10.24,0-10.72-6.59-10.72-12.94h-5.24c-.48,11.19,4.53,17.23,15.72,17.23,10,0,15.24-5,15.24-15.24,0-11.12-7.22-12.62-14.29-17.71-6.51-4.68-10.8-4.92-10.8-13.42,0-6.75,3.89-8.89,10.08-8.89,7.78,0,9.53,4.29,9.69,11.35Z"/><path class="cls-2" d="M208.83,58.21A32.5,32.5,0,0,1,197.47,60c-13.13,0-13-11.7-13-27s-.17-27,13-27c8.5,0,12,4.21,12,12.2h5.39c.25-11.78-5.72-16.75-17.34-16.75-19.78,0-18.35,19.78-18.35,31.56s-1.43,31.56,18.35,31.56A56.11,56.11,0,0,0,214.22,62V31.61H196.54v4.54h12.29V58.21Zm35.1,6.31c14.39,0,15.4-14.23,15.4-18.6h-5.72c-.08,7.83-2.69,14.06-9.68,14.06-12.79,0-13-10.86-13-27s.17-27,13-27c7.74,0,9.6,6.31,9.6,13h5.39c0-5.47-.25-17.59-15-17.59-18.18,0-18.35,15.15-18.35,31.56s.17,31.56,18.35,31.56Zm45.79-57.4h7.07c15,0,17.34,5,17.34,22.47,0,24.83-1.6,29.21-17.84,29.21h-6.57V7.12Zm-5.39,56.22h13.89c18.35,0,21.29-9.93,21.29-30.13,0-20.71-2.1-30.64-19.11-30.64H284.33V63.34Zm47-60.77V63.34h5.39V2.57Zm46.74,55.63A32.5,32.5,0,0,1,366.73,60c-13.13,0-13-11.7-13-27s-.17-27,13-27c8.5,0,12,4.21,12,12.2h5.39c.25-11.78-5.72-16.75-17.34-16.75-19.78,0-18.35,19.78-18.35,31.56s-1.43,31.56,18.35,31.56A56.11,56.11,0,0,0,383.48,62V31.61H365.8v4.54h12.29V58.21Zm18.2-55.63V63.34h5.39V2.57Zm29.79,60.77h5.39V7.12h14.81V2.57h-35V7.12h14.81V63.34ZM464.41,2.57,445.22,63.34h5.39l4.8-16h23.82l4.88,16h5.64L470.81,2.57ZM457,42.8,467.27,8.46h.17L477.79,42.8Zm67.48,20.54V58.79H504.36V2.57H499V63.34Z"/><path class="cls-3" d="M208.83,58.21A32.5,32.5,0,0,1,197.47,60c-13.13,0-13-11.7-13-27s-.17-27,13-27c8.5,0,12,4.21,12,12.2h5.39c.25-11.78-5.72-16.75-17.34-16.75-19.78,0-18.35,19.78-18.35,31.56s-1.43,31.56,18.35,31.56A56.11,56.11,0,0,0,214.22,62V31.61H196.54v4.54h12.29V58.21Zm35.1,6.31c14.39,0,15.4-14.23,15.4-18.6h-5.72c-.08,7.83-2.69,14.06-9.68,14.06-12.79,0-13-10.86-13-27s.17-27,13-27c7.74,0,9.6,6.31,9.6,13h5.39c0-5.47-.25-17.59-15-17.59-18.18,0-18.35,15.15-18.35,31.56s.17,31.56,18.35,31.56Zm45.79-57.4h7.07c15,0,17.34,5,17.34,22.47,0,24.83-1.6,29.21-17.84,29.21h-6.57V7.12Zm-5.39,56.22h13.89c18.35,0,21.29-9.93,21.29-30.13,0-20.71-2.1-30.64-19.11-30.64H284.33V63.34Zm47-60.77V63.34h5.39V2.57Zm46.74,55.63A32.5,32.5,0,0,1,366.73,60c-13.13,0-13-11.7-13-27s-.17-27,13-27c8.5,0,12,4.21,12,12.2h5.39c.25-11.78-5.72-16.75-17.34-16.75-19.78,0-18.35,19.78-18.35,31.56s-1.43,31.56,18.35,31.56A56.11,56.11,0,0,0,383.48,62V31.61H365.8v4.54h12.29V58.21Zm18.2-55.63V63.34h5.39V2.57Zm29.79,60.77h5.39V7.12h14.81V2.57h-35V7.12h14.81V63.34ZM464.41,2.57,445.22,63.34h5.39l4.8-16h23.82l4.88,16h5.64L470.81,2.57ZM457,42.8,467.27,8.46h.17L477.79,42.8Zm67.48,20.54V58.79H504.36V2.57H499V63.34Z"/><g class="cls-4"><line class="cls-5" x1="1.41" x2="1.41" y2="93"/><line class="cls-6" x1="8.59" x2="8.59" y2="93"/><line class="cls-7" x1="15.76" x2="15.76" y2="93"/><line class="cls-8" x1="22.93" x2="22.93" y2="93"/><line class="cls-7" x1="30.11" x2="30.11" y2="93"/><line class="cls-5" x1="37.28" x2="37.28" y2="93"/><line class="cls-9" x1="44.45" x2="44.45" y2="93"/><line class="cls-10" x1="51.63" x2="51.63" y2="93"/><line class="cls-5" x1="98.1" y1="57.41" x2="98.1" y2="150.4"/><line class="cls-6" x1="105.27" y1="57.41" x2="105.27" y2="150.4"/><line class="cls-7" x1="112.44" y1="57.41" x2="112.44" y2="150.4"/><line class="cls-8" x1="119.62" y1="57.41" x2="119.62" y2="150.4"/><line class="cls-7" x1="126.79" y1="57.41" x2="126.79" y2="150.4"/><line class="cls-5" x1="133.97" y1="57.41" x2="133.97" y2="150.4"/><line class="cls-9" x1="141.14" y1="57.41" x2="141.14" y2="150.4"/><line class="cls-10" x1="148.31" y1="57.41" x2="148.31" y2="150.4"/><line class="cls-5" x1="56.75" y1="51.63" x2="149.74" y2="51.63"/><line class="cls-6" x1="56.75" y1="44.45" x2="149.74" y2="44.45"/><line class="cls-7" x1="56.75" y1="37.28" x2="149.74" y2="37.28"/><line class="cls-8" x1="56.75" y1="30.11" x2="149.74" y2="30.11"/><line class="cls-7" x1="56.75" y1="22.93" x2="149.74" y2="22.93"/><line class="cls-5" x1="56.75" y1="15.76" x2="149.74" y2="15.76"/><line class="cls-9" x1="56.75" y1="8.59" x2="149.74" y2="8.59"/><line class="cls-10" x1="56.75" y1="1.41" x2="149.74" y2="1.41"/><line class="cls-5" y1="148.99" x2="92.99" y2="148.99"/><line class="cls-6" y1="141.81" x2="92.99" y2="141.81"/><line class="cls-7" y1="134.64" x2="92.99" y2="134.64"/><line class="cls-8" y1="127.47" x2="92.99" y2="127.47"/><line class="cls-7" y1="120.29" x2="92.99" y2="120.29"/><line class="cls-5" y1="113.12" x2="92.99" y2="113.12"/><line class="cls-9" y1="105.95" x2="92.99" y2="105.95"/><line class="cls-10" y1="98.77" x2="92.99" y2="98.77"/></g></g></g></svg>